<svg width="16" height="17" viewBox="0 0 16 17" fill="none" xmlns="http://www.w3.org/2000/svg">
<g clip-path="url(#clip0_420_684)">
<path d="M12.0625 7.6875C12.4077 7.6875 12.6875 7.40768 12.6875 7.0625C12.6875 6.71732 12.4077 6.4375 12.0625 6.4375C11.7173 6.4375 11.4375 6.71732 11.4375 7.0625C11.4375 7.40768 11.7173 7.6875 12.0625 7.6875Z" fill="#001A36"/>
<path d="M13.5 1.75H12.6875V1.125C12.6875 0.779813 12.4077 0.5 12.0625 0.5C11.7173 0.5 11.4375 0.779813 11.4375 1.125V1.75H8.59375V1.125C8.59375 0.779813 8.31394 0.5 7.96875 0.5C7.62356 0.5 7.34375 0.779813 7.34375 1.125V1.75H4.53125V1.125C4.53125 0.779813 4.25144 0.5 3.90625 0.5C3.56106 0.5 3.28125 0.779813 3.28125 1.125V1.75H2.5C1.1215 1.75 0 2.8715 0 4.25V14C0 15.3785 1.1215 16.5 2.5 16.5H7.28125C7.62644 16.5 7.90625 16.2202 7.90625 15.875C7.90625 15.5298 7.62644 15.25 7.28125 15.25H2.5C1.81075 15.25 1.25 14.6892 1.25 14V4.25C1.25 3.56075 1.81075 3 2.5 3H3.28125V3.625C3.28125 3.97019 3.56106 4.25 3.90625 4.25C4.25144 4.25 4.53125 3.97019 4.53125 3.625V3H7.34375V3.625C7.34375 3.97019 7.62356 4.25 7.96875 4.25C8.31394 4.25 8.59375 3.97019 8.59375 3.625V3H11.4375V3.625C11.4375 3.97019 11.7173 4.25 12.0625 4.25C12.4077 4.25 12.6875 3.97019 12.6875 3.625V3H13.5C14.1892 3 14.75 3.56075 14.75 4.25V7.8125C14.75 8.15769 15.0298 8.4375 15.375 8.4375C15.7202 8.4375 16 8.15769 16 7.8125V4.25C16 2.8715 14.8785 1.75 13.5 1.75Z" fill="#001A36"/>
<path d="M12.2188 8.9375C10.1337 8.9375 8.4375 10.6337 8.4375 12.7188C8.4375 14.8038 10.1337 16.5 12.2188 16.5C14.3038 16.5 16 14.8038 16 12.7188C16 10.6337 14.3038 8.9375 12.2188 8.9375ZM12.2188 15.25C10.823 15.25 9.6875 14.1145 9.6875 12.7188C9.6875 11.323 10.823 10.1875 12.2188 10.1875C13.6145 10.1875 14.75 11.323 14.75 12.7188C14.75 14.1145 13.6145 15.25 12.2188 15.25Z" fill="#001A36"/>
<path d="M13.125 12.0938H12.8438V11.4375C12.8438 11.0923 12.5639 10.8125 12.2188 10.8125C11.8736 10.8125 11.5938 11.0923 11.5938 11.4375V12.7188C11.5938 13.0639 11.8736 13.3438 12.2188 13.3438H13.125C13.4702 13.3438 13.75 13.0639 13.75 12.7188C13.75 12.3736 13.4702 12.0938 13.125 12.0938Z" fill="#001A36"/>
<path d="M9.34375 7.6875C9.68893 7.6875 9.96875 7.40768 9.96875 7.0625C9.96875 6.71732 9.68893 6.4375 9.34375 6.4375C8.99857 6.4375 8.71875 6.71732 8.71875 7.0625C8.71875 7.40768 8.99857 7.6875 9.34375 7.6875Z" fill="#001A36"/>
<path d="M6.625 10.4062C6.97018 10.4062 7.25 10.1264 7.25 9.78125C7.25 9.43607 6.97018 9.15625 6.625 9.15625C6.27982 9.15625 6 9.43607 6 9.78125C6 10.1264 6.27982 10.4062 6.625 10.4062Z" fill="#001A36"/>
<path d="M3.90625 7.6875C4.25143 7.6875 4.53125 7.40768 4.53125 7.0625C4.53125 6.71732 4.25143 6.4375 3.90625 6.4375C3.56107 6.4375 3.28125 6.71732 3.28125 7.0625C3.28125 7.40768 3.56107 7.6875 3.90625 7.6875Z" fill="#001A36"/>
<path d="M3.90625 10.4062C4.25143 10.4062 4.53125 10.1264 4.53125 9.78125C4.53125 9.43607 4.25143 9.15625 3.90625 9.15625C3.56107 9.15625 3.28125 9.43607 3.28125 9.78125C3.28125 10.1264 3.56107 10.4062 3.90625 10.4062Z" fill="#001A36"/>
<path d="M3.90625 13.125C4.25143 13.125 4.53125 12.8452 4.53125 12.5C4.53125 12.1548 4.25143 11.875 3.90625 11.875C3.56107 11.875 3.28125 12.1548 3.28125 12.5C3.28125 12.8452 3.56107 13.125 3.90625 13.125Z" fill="#001A36"/>
<path d="M6.625 13.125C6.97018 13.125 7.25 12.8452 7.25 12.5C7.25 12.1548 6.97018 11.875 6.625 11.875C6.27982 11.875 6 12.1548 6 12.5C6 12.8452 6.27982 13.125 6.625 13.125Z" fill="#001A36"/>
<path d="M6.625 7.6875C6.97018 7.6875 7.25 7.40768 7.25 7.0625C7.25 6.71732 6.97018 6.4375 6.625 6.4375C6.27982 6.4375 6 6.71732 6 7.0625C6 7.40768 6.27982 7.6875 6.625 7.6875Z" fill="#001A36"/>
</g>
<defs>
<clipPath id="clip0_420_684">
<rect width="16" height="16" fill="white" transform="translate(0 0.5)"/>
</clipPath>
</defs>
</svg>
