<svg width="48" height="48" viewBox="0 0 48 48" fill="none" xmlns="http://www.w3.org/2000/svg">
<path d="M24 2C11.856 2 2 11.856 2 24C2 36.144 11.856 46 24 46C36.144 46 46 36.144 46 24C46 11.856 36.144 2 24 2ZM24 44.1667C13 44.1667 3.83333 35 3.83333 24C3.83333 13 13 3.83333 24 3.83333C35 3.83333 44.1667 13 44.1667 24C44.1667 35 35 44.1667 24 44.1667Z" fill="black"/>
<path d="M12.5072 19.2757C11.8751 19.9078 11.8751 20.9269 12.5072 21.559L23.2271 32.2789C23.7302 32.782 24.5429 32.782 25.046 32.2789L35.7659 21.559C36.398 20.9269 36.398 19.9078 35.7659 19.2757C35.1338 18.6436 34.1147 18.6436 33.4826 19.2757L24.1301 28.6153L14.7776 19.2628C14.1584 18.6436 13.1264 18.6436 12.5072 19.2757V19.2757Z" fill="black"/>
</svg>
