<svg width="16" height="17" viewBox="0 0 16 17" fill="none" xmlns="http://www.w3.org/2000/svg">
<path d="M13.6562 8.87975H12.0901C11.8769 8.87975 11.6705 8.90887 11.4741 8.96244C11.0867 8.20081 10.2957 7.6775 9.38422 7.6775H6.61578C5.70431 7.6775 4.91331 8.20081 4.52588 8.96244C4.32947 8.90887 4.12309 8.87975 3.90994 8.87975H2.34375C1.05141 8.87975 0 9.93115 0 11.2235V13.7272C0 14.5026 0.630844 15.1334 1.40625 15.1334H14.5938C15.3692 15.1334 16 14.5026 16 13.7272V11.2235C16 9.93115 14.9486 8.87975 13.6562 8.87975ZM4.27203 10.0213V14.196H1.40625C1.14778 14.196 0.9375 13.9857 0.9375 13.7272V11.2235C0.9375 10.4481 1.56834 9.81728 2.34375 9.81728H3.90994C4.03719 9.81728 4.16041 9.83456 4.27772 9.8664C4.27434 9.91769 4.27203 9.96925 4.27203 10.0213ZM10.7905 14.196H5.20953V10.0213C5.20953 9.24587 5.84037 8.61503 6.61578 8.61503H9.38422C10.1596 8.61503 10.7905 9.24587 10.7905 10.0213V14.196ZM15.0625 13.7272C15.0625 13.9857 14.8522 14.196 14.5938 14.196H11.728V10.0213C11.728 9.96919 11.7257 9.91762 11.7223 9.86637C11.8396 9.83456 11.9628 9.81725 12.0901 9.81725H13.6562C14.4317 9.81725 15.0625 10.4481 15.0625 11.2235V13.7272Z" fill="black"/>
<path d="M3.12688 4.45325C1.97847 4.45325 1.04419 5.38753 1.04419 6.53593C1.04416 7.68434 1.97847 8.61862 3.12688 8.61862C4.27525 8.61862 5.20956 7.68434 5.20956 6.53593C5.20956 5.38753 4.27528 4.45325 3.12688 4.45325ZM3.12685 7.68112C2.49538 7.68112 1.98166 7.1674 1.98166 6.53593C1.98166 5.90447 2.49538 5.39075 3.12685 5.39075C3.75831 5.39075 4.27203 5.90447 4.27203 6.53593C4.27203 7.1674 3.75831 7.68112 3.12685 7.68112Z" fill="black"/>
<path d="M7.99997 1.86653C6.46572 1.86653 5.21753 3.11472 5.21753 4.64897C5.21753 6.18322 6.46572 7.43141 7.99997 7.43141C9.53422 7.43141 10.7824 6.18322 10.7824 4.64897C10.7824 3.11475 9.53422 1.86653 7.99997 1.86653ZM7.99997 6.49391C6.98265 6.49391 6.15503 5.66628 6.15503 4.64897C6.15503 3.63169 6.98265 2.80403 7.99997 2.80403C9.01728 2.80403 9.8449 3.63166 9.8449 4.64897C9.8449 5.66628 9.01728 6.49391 7.99997 6.49391Z" fill="black"/>
<path d="M12.8732 4.45325C11.7248 4.45325 10.7905 5.38753 10.7905 6.53593C10.7906 7.68434 11.7248 8.61862 12.8732 8.61862C14.0216 8.61862 14.9559 7.68434 14.9559 6.53593C14.9559 5.38753 14.0216 4.45325 12.8732 4.45325ZM12.8732 7.68112C12.2418 7.68112 11.728 7.1674 11.728 6.53593C11.7281 5.90447 12.2418 5.39075 12.8732 5.39075C13.5047 5.39075 14.0184 5.90447 14.0184 6.53593C14.0184 7.1674 13.5047 7.68112 12.8732 7.68112Z" fill="black"/>
</svg>
