<svg width="48" height="48" viewBox="0 0 48 48" fill="none" xmlns="http://www.w3.org/2000/svg">
<g clip-path="url(#clip0_2562_2401)">
<path d="M24 0C10.752 0 0 10.752 0 24C0 37.248 10.752 48 24 48C37.248 48 48 37.248 48 24C48 10.752 37.248 0 24 0ZM24 46.5C12 46.5 1.5 36 1.5 24C1.5 12 12 1.5 24 1.5C36 1.5 46.5 12 46.5 24C46.5 36 36 46.5 24 46.5Z" fill="black"/>
<g clip-path="url(#clip1_2562_2401)">
<path d="M33 25.5H15C14.175 25.5 13.5 24.825 13.5 24C13.5 23.175 14.175 22.5 15 22.5H33C33.825 22.5 34.5 23.175 34.5 24C34.5 24.825 33.825 25.5 33 25.5Z" fill="black"/>
</g>
</g>
<defs>
<clipPath id="clip0_2562_2401">
<rect width="48" height="48" fill="white"/>
</clipPath>
<clipPath id="clip1_2562_2401">
<rect width="36" height="36" fill="white" transform="translate(6 6)"/>
</clipPath>
</defs>
</svg>
